<svg width="936" height="376" viewBox="0 0 936 376" fill="none" xmlns="http://www.w3.org/2000/svg">
<path d="M422.992 19.2904C425.598 24.809 426.595 30.0978 425.982 35.1566C425.522 40.0621 423.759 44.431 420.693 48.2635C417.78 52.0959 413.871 55.3151 408.966 57.9211C404.213 60.3739 398.925 61.8302 393.099 62.2901C384.055 63.0566 373.094 62.6733 360.217 61.1404C347.34 59.6074 333.237 57.4613 317.907 54.7019C302.731 51.7893 286.712 48.4934 269.849 44.8143C252.986 40.9819 236.047 37.3027 219.031 33.7769C223.017 39.6022 225.853 45.5041 227.539 51.4827C229.225 57.308 230.068 63.2865 230.068 69.4184C230.068 79.536 229.302 90.2667 227.769 101.611C226.389 112.801 224.626 124.375 222.48 136.332C230.298 137.559 237.427 137.942 243.865 137.482C250.304 137.022 255.592 135.183 259.731 131.963C258.965 138.095 257.432 143.077 255.132 146.91C252.833 150.589 249.844 153.348 246.165 155.188C242.639 157.027 238.5 158.101 233.748 158.407C228.995 158.714 223.937 158.407 218.571 157.487C215.659 172.817 212.899 187.993 210.293 203.016C207.687 217.886 206.154 231.99 205.694 245.326C205.388 258.663 206.537 270.697 209.143 281.428C211.749 292.312 216.808 301.28 224.32 308.331C218.648 307.871 213.359 306.338 208.454 303.732C203.548 301.28 199.026 298.29 194.887 294.765C190.901 291.239 187.299 287.406 184.079 283.267C181.013 279.128 178.407 275.219 176.261 271.54C171.816 264.182 168.826 255.751 167.293 246.246C165.914 236.742 165.53 226.624 166.144 215.893C166.91 205.009 168.366 193.742 170.513 182.091C172.812 170.441 175.495 158.714 178.561 146.91C169.823 143.997 161.162 141.161 152.577 138.402C143.992 135.643 135.791 133.496 127.973 131.963C120.308 130.43 113.333 129.971 107.048 130.584C100.763 131.044 95.6272 133.19 91.6415 137.022C93.9409 129.511 98.0799 124.299 104.059 121.386C110.19 118.473 117.472 117.094 125.903 117.247C134.335 117.247 143.532 118.397 153.497 120.696C163.461 122.842 173.502 125.218 183.62 127.824C186.226 118.167 188.755 108.739 191.208 99.5412C193.814 90.1901 196.113 81.3755 198.106 73.0975C200.099 64.6662 201.632 56.8481 202.705 49.6431C203.778 42.4382 204.161 36.0764 203.855 30.5577C186.839 27.0319 170.666 24.0426 155.336 21.5898C138.627 18.9838 123.297 19.4437 109.347 22.9695C95.5506 26.342 83.2868 31.7074 72.556 39.0657C61.8253 46.2706 52.7041 55.0085 45.1926 65.2794C37.5277 75.397 31.6258 85.8978 27.4868 96.7819C23.3478 107.513 20.8951 118.167 20.1286 128.744C19.3621 139.168 20.4352 148.366 23.3478 156.338C25.9538 164.002 30.2462 170.518 36.2247 175.883C42.2033 181.095 49.1016 185.387 56.9198 188.76C64.8912 191.979 73.2459 194.355 81.9838 195.888C90.875 197.421 99.3063 198.341 107.278 198.648C115.402 198.954 122.761 198.724 129.352 197.958C135.944 197.191 140.926 196.118 144.299 194.738C143.839 199.491 142.459 203.17 140.16 205.776C137.86 208.382 135.178 210.298 132.112 211.524C129.046 212.598 125.903 213.211 122.684 213.364C119.465 213.517 116.859 213.517 114.866 213.364C105.208 212.904 94.7841 211.371 83.5934 208.765C72.556 206.159 61.9786 202.48 51.861 197.728C41.5901 192.976 32.3923 187.15 24.2676 180.252C16.1429 173.2 10.2409 164.999 6.56181 155.648C1.65632 143.231 -0.413189 130.507 0.353294 117.477C1.11978 104.447 4.10906 91.8764 9.32115 79.7659C14.5332 67.5022 21.8148 56.1582 31.1659 45.7341C40.3637 35.3099 51.0945 26.4953 63.3582 19.2904C75.622 11.9321 89.1121 6.56675 103.829 3.19423C118.545 -0.178313 133.951 -0.791501 150.048 1.35466C165.071 3.34752 181.243 5.87692 198.566 8.94285C216.042 11.8555 233.748 14.7681 251.683 17.6808C269.619 20.5934 287.325 23.2761 304.801 25.7288C322.276 28.0283 338.602 29.4846 353.779 30.0978C369.109 30.711 382.752 30.2511 394.709 28.7181C406.666 27.1851 416.094 24.0426 422.992 19.2904ZM303.717 226.011C303.564 227.544 302.951 229.92 301.878 233.139C300.958 236.359 299.655 239.808 297.969 243.487C296.436 247.166 294.596 250.922 292.45 254.754C290.457 258.587 288.388 261.959 286.241 264.872C284.095 267.784 281.949 270.084 279.803 271.77C277.657 273.303 275.741 273.686 274.054 272.92C269.455 270.927 265.24 268.627 261.407 266.021C257.575 263.415 255.199 260.043 254.279 255.904C252.746 249.005 252.44 240.574 253.359 230.61C254.126 220.646 256.042 210.145 259.108 199.107C260.181 195.428 261.637 191.213 263.477 186.46C265.163 181.708 267.386 177.186 270.145 172.894C272.905 168.601 276.277 164.999 280.263 162.086C284.249 159.174 289.001 157.717 294.519 157.717C297.892 157.717 301.188 158.254 304.407 159.327C307.626 160.4 310.462 161.856 312.915 163.696C315.521 165.382 317.744 167.375 319.583 169.674C321.423 171.821 322.726 173.967 323.493 176.113C324.259 178.106 324.566 179.945 324.412 181.632C324.259 183.318 323.339 184.161 321.653 184.161C319.66 184.161 318.204 183.548 317.284 182.321C316.518 181.095 315.674 179.715 314.755 178.182C313.988 176.649 312.992 175.27 311.765 174.043C310.539 172.664 308.546 171.974 305.787 171.974C303.027 171.974 300.498 173.354 298.199 176.113C296.052 178.872 294.06 182.245 292.22 186.23C290.38 190.063 288.771 194.049 287.391 198.188C286.165 202.327 285.168 205.699 284.402 208.305C284.402 208.459 284.019 209.991 283.252 212.904C282.486 215.817 281.643 219.266 280.723 223.252C279.803 227.237 278.883 231.3 277.963 235.439C277.044 239.424 276.43 242.644 276.124 245.096C275.817 246.936 276.124 248.162 277.044 248.776C278.117 249.235 279.42 248.852 280.953 247.626C282.179 246.553 283.559 244.79 285.092 242.337C286.778 239.884 288.464 237.048 290.151 233.829C291.837 230.457 293.523 226.931 295.209 223.252C297.049 219.573 298.658 216.047 300.038 212.674C301.571 209.148 302.874 205.852 303.947 202.787C305.02 199.721 305.787 197.268 306.247 195.428L308.086 180.942C308.086 180.788 309.159 181.402 311.305 182.781C313.452 184.008 315.904 185.771 318.664 188.07C321.576 190.216 324.336 192.592 326.942 195.198C329.701 197.804 331.617 200.257 332.69 202.557C333.61 204.703 333.687 207.002 332.92 209.455C332.307 211.908 331.541 215.357 330.621 219.802C330.621 219.802 330.391 220.952 329.931 223.252C329.624 225.398 329.241 228.08 328.781 231.3C328.321 234.366 327.862 237.662 327.402 241.187C327.095 244.56 326.942 247.396 326.942 249.695C327.095 252.455 327.555 254.064 328.321 254.524C329.088 254.984 329.854 254.907 330.621 254.294C331.541 253.528 332.384 252.531 333.15 251.305C333.917 250.079 334.453 249.159 334.76 248.546C337.059 244.56 339.359 239.578 341.658 233.599C344.111 227.621 346.64 221.719 349.246 215.893L360.054 188.76C360.054 189.68 360.207 191.059 360.514 192.899C360.82 194.585 360.974 196.731 360.974 199.337C360.974 201.943 360.744 205.009 360.284 208.535C359.824 211.908 358.827 215.817 357.294 220.262L356.375 221.872L353.615 230.15C351.929 234.596 350.243 239.195 348.557 243.947C347.024 248.546 345.184 252.838 343.038 256.824C340.892 261.116 338.516 264.718 335.91 267.631C333.457 270.39 330.774 271.847 327.862 272C325.715 272 323.493 271.463 321.193 270.39C319.047 269.164 316.977 267.478 314.985 265.332C312.992 263.185 311.229 260.656 309.696 257.743C308.163 254.831 307.166 251.688 306.707 248.316C306.247 246.476 305.863 244.407 305.557 242.107C305.25 239.808 304.944 237.585 304.637 235.439C304.484 233.293 304.33 231.376 304.177 229.69C304.024 228.004 303.871 226.777 303.717 226.011ZM409.249 181.862C409.556 178.796 409.479 176.803 409.02 175.883C408.56 174.81 407.946 174.427 407.18 174.733C406.414 175.04 405.494 175.806 404.421 177.033C403.501 178.106 402.734 179.255 402.121 180.482C400.895 182.475 398.825 186.077 395.913 191.289C393.153 196.348 390.317 202.557 387.405 209.915C384.492 217.273 382.039 225.398 380.046 234.289C378.054 243.18 377.364 252.301 377.977 261.652L378.207 261.882L377.977 261.652L378.207 261.882C379.127 265.868 380.813 269.317 383.266 272.23C380.66 272.23 377.747 271.923 374.528 271.31C371.462 270.544 368.549 269.317 365.79 267.631C363.031 265.791 360.654 263.492 358.662 260.733C356.669 257.82 355.442 254.218 354.982 249.925C354.523 246.859 354.293 243.104 354.293 238.658C354.293 234.059 354.446 229.307 354.753 224.401C354.906 219.343 355.212 214.437 355.672 209.685C355.979 204.779 356.285 200.41 356.592 196.578L359.351 169.445C359.351 166.379 359.045 164.002 358.432 162.316C357.818 160.477 357.129 158.637 356.362 156.798C356.362 156.644 357.589 157.411 360.041 159.097C362.341 160.783 365.1 162.929 368.319 165.535C371.385 167.988 374.374 170.671 377.287 173.584C380.353 176.496 382.346 179.102 383.266 181.402C384.032 183.088 384.722 185.004 385.335 187.15C385.948 189.143 386.178 191.596 386.025 194.509C387.865 189.603 389.321 185.464 390.394 182.091C391.467 178.719 392.77 175.576 394.303 172.664C396.449 168.218 398.749 164.616 401.201 161.856C403.654 159.097 406.337 157.487 409.249 157.027C410.936 156.721 413.312 157.334 416.378 158.867C419.597 160.247 422.74 162.24 425.806 164.846C428.871 167.298 431.554 170.211 433.854 173.584C436.153 176.803 437.379 180.175 437.533 183.701C437.839 187.074 437.609 190.599 436.843 194.279C438.836 189.526 440.369 185.464 441.442 182.091C442.515 178.719 443.818 175.576 445.351 172.664C447.497 168.218 449.796 164.616 452.249 161.856C454.702 159.097 457.308 157.487 460.067 157.027C461.907 156.721 464.36 157.334 467.426 158.867C470.492 160.247 473.557 162.24 476.623 164.846C479.689 167.298 482.372 170.211 484.671 173.584C486.971 176.803 488.197 180.175 488.351 183.701C488.657 187.993 488.351 192.822 487.431 198.188C486.511 203.4 485.438 208.918 484.212 214.744C482.985 220.416 481.759 226.241 480.532 232.22C479.306 238.198 478.616 244.023 478.463 249.695C478.31 252.301 478.54 253.834 479.153 254.294C479.919 254.754 480.762 254.677 481.682 254.064C482.602 253.298 483.522 252.378 484.442 251.305C485.361 250.079 485.975 249.159 486.281 248.546C488.581 244.56 490.88 239.578 493.179 233.599C495.632 227.621 498.162 221.719 500.768 215.893L511.575 188.76C511.575 189.68 511.728 191.059 512.035 192.899C512.342 194.585 512.495 196.731 512.495 199.337C512.495 201.943 512.265 205.009 511.805 208.535C511.345 211.908 510.349 215.817 508.816 220.262L507.896 221.872L505.137 230.15C503.45 234.596 501.764 239.195 500.078 243.947C498.545 248.546 496.705 252.838 494.559 256.824C492.413 261.116 490.037 264.642 487.431 267.401C484.825 270.007 482.142 271.54 479.383 272C477.543 272.307 475.397 272 472.944 271.08C470.492 270.16 468.115 268.704 465.816 266.711C463.517 264.718 461.447 262.342 459.607 259.583C457.921 256.67 457.001 253.451 456.848 249.925C456.542 246.859 456.388 243.104 456.388 238.658C456.388 234.059 456.465 229.307 456.618 224.401C456.925 219.496 457.231 214.59 457.538 209.685C457.845 204.779 458.151 200.41 458.458 196.578C458.764 193.665 459.071 191.059 459.378 188.76C459.684 186.307 459.914 184.008 460.067 181.862C460.374 178.796 460.297 176.803 459.837 175.883C459.531 174.81 458.994 174.427 458.228 174.733C457.461 175.04 456.542 175.806 455.468 177.033C454.549 178.106 453.706 179.255 452.939 180.482C451.713 182.475 449.567 186.23 446.501 191.749C443.588 197.115 440.675 203.553 437.763 211.065C434.85 218.576 432.474 226.777 430.634 235.669C428.795 244.56 428.335 253.451 429.255 262.342C430.174 265.868 431.707 269.164 433.854 272.23C431.248 272.23 428.412 271.923 425.346 271.31C422.28 270.544 419.367 269.317 416.608 267.631C413.848 265.791 411.472 263.492 409.479 260.733C407.487 257.82 406.26 254.218 405.8 249.925C405.494 246.859 405.34 243.104 405.34 238.658C405.34 234.059 405.417 229.307 405.57 224.401C405.877 219.343 406.184 214.437 406.49 209.685C406.797 204.779 407.103 200.41 407.41 196.578L409.249 181.862ZM485.611 347.882C487.451 343.59 490.363 338.914 494.349 333.855C498.335 328.95 502.934 323.891 508.146 318.679C513.358 313.62 518.953 308.485 524.932 303.273C531.063 298.214 537.195 293.308 543.327 288.556C545.013 280.278 546.623 271.463 548.156 262.112C549.689 252.608 550.992 242.567 552.065 231.99C550.992 235.669 549.306 240.038 547.006 245.096C544.707 250.155 542.177 254.907 539.418 259.353C536.812 263.799 534.053 267.401 531.14 270.16C528.381 272.92 525.928 273.84 523.782 272.92C519.183 270.927 514.967 268.627 511.135 266.021C507.302 263.415 504.926 260.043 504.007 255.904C502.474 249.005 502.167 240.574 503.087 230.61C503.853 220.646 505.77 210.145 508.835 199.107C509.909 195.428 511.365 191.213 513.204 186.46C514.891 181.708 517.113 177.186 519.873 172.894C522.632 168.601 526.005 164.999 529.99 162.086C533.976 159.174 538.728 157.717 544.247 157.717C547.62 157.717 550.915 158.254 554.135 159.327C557.354 160.4 560.19 161.856 562.643 163.696C565.249 165.382 567.471 167.375 569.311 169.674C571.151 171.821 572.454 173.967 573.22 176.113C573.987 178.106 574.293 179.945 574.14 181.632C573.987 183.318 573.067 184.161 571.381 184.161C569.388 184.161 567.931 183.548 567.012 182.321C566.245 181.095 565.402 179.715 564.482 178.182C563.716 176.649 562.719 175.27 561.493 174.043C560.267 172.664 558.274 171.974 555.514 171.974C552.755 171.974 550.226 173.354 547.926 176.113C545.78 178.872 543.787 182.245 541.948 186.23C540.108 190.063 538.498 194.049 537.119 198.188C535.892 202.327 534.896 205.699 534.129 208.305C534.129 208.459 533.746 209.991 532.98 212.904C532.213 215.817 531.37 219.266 530.45 223.252C529.531 227.237 528.611 231.3 527.691 235.439C526.771 239.424 526.158 242.644 525.851 245.096C525.545 246.936 525.851 248.162 526.771 248.776C527.844 249.235 529.147 248.852 530.68 247.626C532.213 246.246 534.053 243.717 536.199 240.038C538.498 236.205 540.721 231.99 542.867 227.391C545.167 222.792 547.313 218.116 549.306 213.364C551.299 208.459 552.908 204.243 554.135 200.717L554.365 199.567L555.744 196.118C556.511 193.819 557.047 191.519 557.354 189.22C557.814 186.767 558.044 184.238 558.044 181.632C558.044 181.478 559.04 182.015 561.033 183.241C563.026 184.468 565.325 186.154 567.931 188.3C570.691 190.446 573.373 192.822 575.979 195.428C578.585 197.881 580.425 200.257 581.498 202.557C582.418 204.703 582.495 207.079 581.728 209.685C581.115 212.138 580.348 215.51 579.429 219.802C578.202 225.628 577.052 232.22 575.979 239.578C575.06 246.936 573.757 254.831 572.07 263.262C574.983 259.89 577.589 256.517 579.888 253.145C582.188 249.619 584.334 245.94 586.327 242.107C588.32 238.121 590.236 233.982 592.076 229.69C593.915 225.398 595.908 220.799 598.054 215.893L608.862 188.76C608.862 189.68 609.015 191.059 609.321 192.899C609.628 194.585 609.781 196.731 609.781 199.337C609.781 201.943 609.551 205.009 609.092 208.535C608.632 211.908 607.635 215.817 606.102 220.262L605.182 221.872C601.657 229.997 598.514 236.972 595.755 242.797C592.995 248.622 590.236 253.834 587.477 258.433C584.717 263.032 581.728 267.171 578.509 270.85C575.443 274.529 571.84 278.209 567.701 281.888C566.015 289.399 564.176 297.064 562.183 304.882C560.19 312.7 558.044 320.212 555.744 327.417C553.445 334.622 550.915 341.213 548.156 347.192C545.397 353.324 542.407 358.383 539.188 362.368C536.276 366.201 532.596 369.19 528.151 371.336C523.705 373.482 519.183 374.862 514.584 375.475C509.832 376.088 505.31 375.935 501.017 375.015C496.572 374.096 492.893 372.486 489.98 370.187C486.914 367.887 484.921 364.821 484.001 360.989C482.928 357.31 483.465 352.941 485.611 347.882ZM518.033 352.481C520.793 349.721 524.088 344.203 527.921 335.925C531.753 327.647 535.432 316.993 538.958 303.962C534.819 307.488 530.834 311.167 527.001 315C523.169 318.985 519.643 322.818 516.424 326.497C513.051 330.329 509.985 334.009 507.226 337.534C504.467 341.06 502.09 344.203 500.098 346.962C495.345 353.401 492.816 358.076 492.509 360.989C492.203 364.055 493.276 365.664 495.729 365.818C498.028 366.124 501.324 365.051 505.616 362.598C509.755 360.299 513.894 356.926 518.033 352.481ZM604.694 122.536C610.672 125.142 615.425 127.901 618.95 130.814C622.476 133.726 625.006 136.716 626.539 139.782C628.225 142.694 629.068 145.684 629.068 148.749C629.221 151.815 628.915 154.881 628.148 157.947C627.535 160.86 626.692 163.773 625.619 166.685C624.546 169.444 623.626 172.127 622.859 174.733C624.852 175.653 626.539 176.266 627.918 176.573C629.451 176.726 630.831 176.803 632.057 176.803C633.437 176.803 634.817 176.573 636.196 176.113C637.729 175.653 639.109 174.81 640.335 173.584C641.715 172.357 642.941 170.594 644.014 168.295C645.087 165.995 645.931 163.083 646.544 159.557C649.15 159.863 651.986 160.86 655.052 162.546C658.118 164.232 660.8 166.225 663.1 168.525C665.553 170.824 667.392 173.2 668.619 175.653C669.998 178.106 670.151 180.252 669.078 182.091C666.472 186.69 663.79 192.056 661.03 198.188C658.424 204.32 656.048 210.528 653.902 216.813C651.756 223.098 649.993 229.154 648.613 234.979C647.387 240.651 646.927 245.403 647.234 249.235C647.234 250.309 647.31 251.535 647.464 252.915C647.617 254.141 648 255.137 648.613 255.904C649.38 256.517 650.376 256.517 651.603 255.904C652.982 255.291 654.975 253.528 657.581 250.615C659.267 248.622 661.644 244.56 664.709 238.428C667.929 232.143 671.455 224.631 675.287 215.893L686.324 188.76C686.324 189.68 686.478 191.059 686.784 192.899C687.091 194.585 687.244 196.731 687.244 199.337C687.244 201.943 686.937 205.009 686.324 208.535C685.864 211.908 684.868 215.817 683.335 220.262C681.036 225.474 678.583 231.146 675.977 237.278C673.371 243.257 670.611 248.852 667.699 254.064C664.786 259.123 661.644 263.415 658.271 266.941C654.898 270.314 651.219 272 647.234 272C642.941 272 639.109 270.774 635.736 268.321C632.517 265.868 629.834 262.572 627.688 258.433C625.695 254.141 624.392 249.235 623.779 243.717C623.166 238.198 623.243 232.296 624.009 226.011C624.929 219.726 626.539 213.287 628.838 206.696C631.291 200.104 634.663 193.589 638.956 187.15C636.35 186.997 633.59 186.92 630.678 186.92C627.918 186.92 624.316 185.847 619.87 183.701L606.993 219.113L601.475 231.76C600.401 229.613 599.405 227.467 598.485 225.321C597.412 223.175 597.182 220.569 597.795 217.503L599.405 213.594C602.931 205.163 605.69 197.958 607.683 191.979C609.523 185.847 610.749 181.248 611.362 178.182C607.836 175.423 605.384 172.51 604.004 169.445C602.624 166.379 601.858 163.313 601.705 160.247C601.551 157.027 601.858 153.808 602.624 150.589C603.237 147.37 603.927 144.151 604.694 140.931C605.307 137.712 605.767 134.57 606.073 131.504C606.227 128.438 605.767 125.448 604.694 122.536ZM726.331 226.011C726.178 227.544 725.565 229.92 724.492 233.139C723.572 236.359 722.269 239.808 720.583 243.487C719.05 247.166 717.21 250.922 715.064 254.754C713.071 258.587 711.002 261.959 708.855 264.872C706.709 267.784 704.563 270.084 702.417 271.77C700.271 273.303 698.355 273.686 696.668 272.92C692.069 270.927 687.854 268.627 684.021 266.021C680.189 263.415 677.813 260.043 676.893 255.904C675.36 249.005 675.053 240.574 675.973 230.61C676.74 220.646 678.656 210.145 681.722 199.107C682.795 195.428 684.251 191.213 686.091 186.46C687.777 181.708 690 177.186 692.759 172.894C695.519 168.601 698.891 164.999 702.877 162.086C706.862 159.174 711.615 157.717 717.133 157.717C720.506 157.717 723.802 158.254 727.021 159.327C730.24 160.4 733.076 161.856 735.529 163.696C738.135 165.382 740.358 167.375 742.197 169.674C744.037 171.821 745.34 173.967 746.106 176.113C746.873 178.106 747.18 179.945 747.026 181.632C746.873 183.318 745.953 184.161 744.267 184.161C742.274 184.161 740.818 183.548 739.898 182.321C739.131 181.095 738.288 179.715 737.369 178.182C736.602 176.649 735.606 175.27 734.379 174.043C733.153 172.664 731.16 171.974 728.401 171.974C725.641 171.974 723.112 173.354 720.812 176.113C718.666 178.872 716.673 182.245 714.834 186.23C712.994 190.063 711.385 194.049 710.005 198.188C708.779 202.327 707.782 205.699 707.016 208.305C707.016 208.459 706.633 209.991 705.866 212.904C705.1 215.817 704.256 219.266 703.337 223.252C702.417 227.237 701.497 231.3 700.577 235.439C699.658 239.424 699.044 242.644 698.738 245.096C698.431 246.936 698.738 248.162 699.658 248.776C700.731 249.235 702.034 248.852 703.567 247.626C704.793 246.553 706.173 244.79 707.706 242.337C709.392 239.884 711.078 237.048 712.764 233.829C714.451 230.457 716.137 226.931 717.823 223.252C719.663 219.573 721.272 216.047 722.652 212.674C724.185 209.148 725.488 205.852 726.561 202.787C727.634 199.721 728.401 197.268 728.861 195.428L730.7 180.942C730.7 180.788 731.773 181.402 733.919 182.781C736.066 184.008 738.518 185.771 741.278 188.07C744.19 190.216 746.95 192.592 749.556 195.198C752.315 197.804 754.231 200.257 755.304 202.557C756.224 204.703 756.301 207.002 755.534 209.455C754.921 211.908 754.155 215.357 753.235 219.802C753.235 219.802 753.005 220.952 752.545 223.252C752.238 225.398 751.855 228.08 751.395 231.3C750.935 234.366 750.475 237.662 750.016 241.187C749.709 244.56 749.556 247.396 749.556 249.695C749.709 252.455 750.169 254.064 750.935 254.524C751.702 254.984 752.468 254.907 753.235 254.294C754.155 253.528 754.998 252.531 755.764 251.305C756.531 250.079 757.067 249.159 757.374 248.546C759.673 244.56 761.973 239.578 764.272 233.599C766.725 227.621 769.254 221.719 771.86 215.893L782.668 188.76C782.668 189.68 782.821 191.059 783.128 192.899C783.434 194.585 783.587 196.731 783.587 199.337C783.587 201.943 783.358 205.009 782.898 208.535C782.438 211.908 781.441 215.817 779.908 220.262L778.989 221.872L776.229 230.15C774.543 234.596 772.857 239.195 771.17 243.947C769.637 248.546 767.798 252.838 765.652 256.824C763.506 261.116 761.13 264.718 758.523 267.631C756.071 270.39 753.388 271.847 750.475 272C748.329 272 746.106 271.463 743.807 270.39C741.661 269.164 739.591 267.478 737.598 265.332C735.606 263.185 733.843 260.656 732.31 257.743C730.777 254.831 729.78 251.688 729.32 248.316C728.861 246.476 728.477 244.407 728.171 242.107C727.864 239.808 727.558 237.585 727.251 235.439C727.098 233.293 726.944 231.376 726.791 229.69C726.638 228.004 726.484 226.777 726.331 226.011ZM831.863 181.862C832.17 178.796 832.093 176.803 831.633 175.883C831.173 174.81 830.56 174.427 829.794 174.733C829.027 175.04 828.108 175.806 827.034 177.033C826.115 178.106 825.348 179.255 824.735 180.482C823.509 182.475 821.439 186.077 818.527 191.289C815.767 196.348 812.931 202.557 810.019 209.915C807.106 217.273 804.653 225.398 802.66 234.289C800.667 243.18 799.978 252.301 800.591 261.652L800.821 261.882L800.591 261.652L800.821 261.882C801.741 265.868 803.427 269.317 805.88 272.23C803.273 272.23 800.361 271.923 797.142 271.31C794.076 270.544 791.163 269.317 788.404 267.631C785.644 265.791 783.268 263.492 781.275 260.733C779.283 257.82 778.056 254.218 777.596 249.925C777.136 246.859 776.906 243.104 776.906 238.658C776.906 234.059 777.06 229.307 777.366 224.401C777.52 219.343 777.826 214.437 778.286 209.685C778.593 204.779 778.899 200.41 779.206 196.578L781.965 169.445C781.965 166.379 781.659 164.002 781.045 162.316C780.432 160.477 779.742 158.637 778.976 156.798C778.976 156.644 780.202 157.411 782.655 159.097C784.955 160.783 787.714 162.929 790.933 165.535C793.999 167.988 796.988 170.671 799.901 173.584C802.967 176.496 804.96 179.102 805.88 181.402C806.646 183.088 807.336 185.004 807.949 187.15C808.562 189.143 808.792 191.596 808.639 194.509C810.478 189.603 811.935 185.464 813.008 182.091C814.081 178.719 815.384 175.576 816.917 172.664C819.063 168.218 821.363 164.616 823.815 161.856C826.268 159.097 828.951 157.487 831.863 157.027C833.55 156.721 835.926 157.334 838.992 158.867C842.211 160.247 845.353 162.24 848.419 164.846C851.485 167.298 854.168 170.211 856.467 173.584C858.767 176.803 859.993 180.175 860.147 183.701C860.453 187.074 860.223 190.599 859.457 194.279C861.45 189.526 862.983 185.464 864.056 182.091C865.129 178.719 866.432 175.576 867.965 172.664C870.111 168.218 872.41 164.616 874.863 161.856C877.316 159.097 879.922 157.487 882.681 157.027C884.521 156.721 886.973 157.334 890.039 158.867C893.105 160.247 896.171 162.24 899.237 164.846C902.303 167.298 904.986 170.211 907.285 173.584C909.585 176.803 910.811 180.175 910.964 183.701C911.271 187.993 910.964 192.822 910.045 198.188C909.125 203.4 908.052 208.918 906.825 214.744C905.599 220.416 904.373 226.241 903.146 232.22C901.92 238.198 901.23 244.023 901.077 249.695C900.923 252.301 901.153 253.834 901.767 254.294C902.533 254.754 903.376 254.677 904.296 254.064C905.216 253.298 906.136 252.378 907.055 251.305C907.975 250.079 908.588 249.159 908.895 248.546C911.194 244.56 913.494 239.578 915.793 233.599C918.246 227.621 920.775 221.719 923.381 215.893L934.189 188.76C934.189 189.68 934.342 191.059 934.649 192.899C934.955 194.585 935.109 196.731 935.109 199.337C935.109 201.943 934.879 205.009 934.419 208.535C933.959 211.908 932.963 215.817 931.43 220.262L930.51 221.872L927.75 230.15C926.064 234.596 924.378 239.195 922.692 243.947C921.159 248.546 919.319 252.838 917.173 256.824C915.027 261.116 912.651 264.642 910.045 267.401C907.439 270.007 904.756 271.54 901.997 272C900.157 272.307 898.011 272 895.558 271.08C893.105 270.16 890.729 268.704 888.43 266.711C886.13 264.718 884.061 262.342 882.221 259.583C880.535 256.67 879.615 253.451 879.462 249.925C879.155 246.859 879.002 243.104 879.002 238.658C879.002 234.059 879.079 229.307 879.232 224.401C879.539 219.496 879.845 214.59 880.152 209.685C880.458 204.779 880.765 200.41 881.072 196.578C881.378 193.665 881.685 191.059 881.991 188.76C882.298 186.307 882.528 184.008 882.681 181.862C882.988 178.796 882.911 176.803 882.451 175.883C882.145 174.81 881.608 174.427 880.842 174.733C880.075 175.04 879.155 175.806 878.082 177.033C877.163 178.106 876.319 179.255 875.553 180.482C874.327 182.475 872.18 186.23 869.114 191.749C866.202 197.115 863.289 203.553 860.377 211.065C857.464 218.576 855.088 226.777 853.248 235.669C851.409 244.56 850.949 253.451 851.869 262.342C852.788 265.868 854.321 269.164 856.467 272.23C853.861 272.23 851.025 271.923 847.959 271.31C844.894 270.544 841.981 269.317 839.222 267.631C836.462 265.791 834.086 263.492 832.093 260.733C830.1 257.82 828.874 254.218 828.414 249.925C828.108 246.859 827.954 243.104 827.954 238.658C827.954 234.059 828.031 229.307 828.184 224.401C828.491 219.343 828.797 214.437 829.104 209.685C829.411 204.779 829.717 200.41 830.024 196.578L831.863 181.862Z" fill="black"/>
</svg>
